<svg width="32" height="27" viewBox="0 0 32 27" fill="none" xmlns="http://www.w3.org/2000/svg">
<path fill-rule="evenodd" clip-rule="evenodd" d="M21.3663 21.5341L17.4958 14.8302C16.7138 13.4759 14.759 13.4759 13.9771 14.8302L10.1066 21.5341C9.32468 22.8885 10.3021 24.5814 11.8659 24.5814H19.607C21.1708 24.5814 22.1482 22.8885 21.3663 21.5341ZM19.2551 13.8145C17.6912 11.1058 13.7816 11.1058 12.2178 13.8145L8.34727 20.5184C6.78343 23.227 8.73823 26.6129 11.8659 26.6129H19.607C22.7346 26.6129 24.6894 23.227 23.1256 20.5184L19.2551 13.8145Z" fill="black"/>
<path fill-rule="evenodd" clip-rule="evenodd" d="M26.6867 2.30974L19.9828 6.18026C18.6285 6.96218 18.6285 8.91699 19.9828 9.69891L26.6867 13.5694C28.041 14.3514 29.734 13.3739 29.734 11.8101V4.06907C29.734 2.50522 28.041 1.52782 26.6867 2.30974ZM18.967 4.42094C16.2584 5.98478 16.2584 9.89439 18.967 11.4582L25.671 15.3288C28.3796 16.8926 31.7655 14.9378 31.7655 11.8101V4.06907C31.7655 0.941381 28.3796 -1.01342 25.671 0.550419L18.967 4.42094Z" fill="black"/>
<path fill-rule="evenodd" clip-rule="evenodd" d="M5.46172 13.5694L12.1656 9.69889C13.52 8.91697 13.52 6.96216 12.1657 6.18024L5.46172 2.30972C4.10739 1.5278 2.41448 2.5052 2.41448 4.06904L2.41448 11.8101C2.41448 13.3739 4.10739 14.3513 5.46172 13.5694ZM13.1814 11.4582C15.8901 9.89437 15.8901 5.98476 13.1814 4.42092L6.47747 0.550399C3.76881 -1.01345 0.382985 0.941356 0.382985 4.06904L0.382985 11.8101C0.382984 14.9378 3.7688 16.8926 6.47746 15.3287L13.1814 11.4582Z" fill="black"/>
</svg>
