<svg width="25" height="24" viewBox="0 0 25 24" fill="none" xmlns="http://www.w3.org/2000/svg">
<g clip-path="url(#clip0_59_973)">
<path d="M16.3828 21V19C16.3828 17.9391 15.9614 16.9217 15.2112 16.1716C14.4611 15.4214 13.4437 15 12.3828 15H5.38281C4.32195 15 3.30453 15.4214 2.55439 16.1716C1.80424 16.9217 1.38281 17.9391 1.38281 19V21" stroke="black" stroke-width="2" stroke-linecap="round" stroke-linejoin="round"/>
<path d="M8.88281 11C11.092 11 12.8828 9.20914 12.8828 7C12.8828 4.79086 11.092 3 8.88281 3C6.67367 3 4.88281 4.79086 4.88281 7C4.88281 9.20914 6.67367 11 8.88281 11Z" stroke="black" stroke-width="2" stroke-linecap="round" stroke-linejoin="round"/>
<path d="M20.3828 8V14" stroke="black" stroke-width="2" stroke-linecap="round" stroke-linejoin="round"/>
<path d="M23.3828 11H17.3828" stroke="black" stroke-width="2" stroke-linecap="round" stroke-linejoin="round"/>
</g>
<defs>
<clipPath id="clip0_59_973">
<rect width="24" height="24" fill="white" transform="translate(0.382812)"/>
</clipPath>
</defs>
</svg>
