<svg width="78" height="66" viewBox="0 0 78 66" fill="none" xmlns="http://www.w3.org/2000/svg">
<path fill-rule="evenodd" clip-rule="evenodd" d="M51.6476 53.001L42.1213 36.501C40.1968 33.1676 35.3856 33.1676 33.4611 36.501L23.9348 53.001C22.0103 56.3343 24.4159 60.501 28.2649 60.501H47.3175C51.1665 60.501 53.5721 56.3343 51.6476 53.001ZM46.4515 34.001C42.6025 27.3343 32.98 27.3343 29.131 34.001L19.6047 50.501C15.7557 57.1676 20.5669 65.501 28.2649 65.501H47.3175C55.0155 65.501 59.8267 57.1677 55.9777 50.501L46.4515 34.001Z" fill="black"/>
<path fill-rule="evenodd" clip-rule="evenodd" d="M64.7402 5.68491L48.2402 15.2112C44.9069 17.1357 44.9069 21.9469 48.2402 23.8714L64.7402 33.3977C68.0736 35.3222 72.2402 32.9166 72.2402 29.0676V10.015C72.2402 6.16603 68.0736 3.76041 64.7402 5.68491ZM45.7402 10.8811C39.0736 14.7301 39.0736 24.3526 45.7402 28.2016L62.2402 37.7279C68.9069 41.5769 77.2402 36.7656 77.2402 29.0676V10.015C77.2402 2.31704 68.9069 -2.49422 62.2402 1.35478L45.7402 10.8811Z" fill="black"/>
<path fill-rule="evenodd" clip-rule="evenodd" d="M12.5 33.3976L29 23.8713C32.3333 21.9468 32.3333 17.1356 29 15.2111L12.5 5.68479C9.16666 3.76029 5 6.16592 5 10.0149L4.99999 29.0675C4.99999 32.9165 9.16666 35.3221 12.5 33.3976ZM31.5 28.2015C38.1667 24.3525 38.1667 14.73 31.5 10.881L15 1.35467C8.33333 -2.49434 -3.91597e-06 2.31691 -4.25246e-06 10.0149L-5.08528e-06 29.0675C-5.42177e-06 36.7655 8.33332 41.5767 15 37.7277L31.5 28.2015Z" fill="black"/>
</svg>
