<svg width="24" height="25" viewBox="0 0 24 25" fill="none" xmlns="http://www.w3.org/2000/svg">
<g clip-path="url(#clip0_59_1114)">
<path d="M12 15.3999C13.6569 15.3999 15 14.0568 15 12.3999C15 10.743 13.6569 9.3999 12 9.3999C10.3431 9.3999 9 10.743 9 12.3999C9 14.0568 10.3431 15.3999 12 15.3999Z" stroke="black" stroke-width="2" stroke-linecap="round" stroke-linejoin="round"/>
<path d="M19.4 15.3999C19.2669 15.7015 19.2272 16.0361 19.286 16.3605C19.3448 16.6849 19.4995 16.9842 19.73 17.2199L19.79 17.2799C19.976 17.4656 20.1235 17.6862 20.2241 17.929C20.3248 18.1718 20.3766 18.4321 20.3766 18.6949C20.3766 18.9577 20.3248 19.218 20.2241 19.4608C20.1235 19.7036 19.976 19.9242 19.79 20.1099C19.6043 20.2959 19.3837 20.4434 19.1409 20.544C18.8981 20.6447 18.6378 20.6965 18.375 20.6965C18.1122 20.6965 17.8519 20.6447 17.6091 20.544C17.3663 20.4434 17.1457 20.2959 16.96 20.1099L16.9 20.0499C16.6643 19.8194 16.365 19.6647 16.0406 19.6059C15.7162 19.5471 15.3816 19.5868 15.08 19.7199C14.7842 19.8467 14.532 20.0571 14.3543 20.3254C14.1766 20.5937 14.0813 20.9081 14.08 21.2299V21.3999C14.08 21.9303 13.8693 22.439 13.4942 22.8141C13.1191 23.1892 12.6104 23.3999 12.08 23.3999C11.5496 23.3999 11.0409 23.1892 10.6658 22.8141C10.2907 22.439 10.08 21.9303 10.08 21.3999V21.3099C10.0723 20.9789 9.96512 20.6579 9.77251 20.3886C9.5799 20.1193 9.31074 19.9142 9 19.7999C8.69838 19.6668 8.36381 19.6271 8.03941 19.6859C7.71502 19.7447 7.41568 19.8994 7.18 20.1299L7.12 20.1899C6.93425 20.3759 6.71368 20.5234 6.47088 20.624C6.22808 20.7247 5.96783 20.7765 5.705 20.7765C5.44217 20.7765 5.18192 20.7247 4.93912 20.624C4.69632 20.5234 4.47575 20.3759 4.29 20.1899C4.10405 20.0042 3.95653 19.7836 3.85588 19.5408C3.75523 19.298 3.70343 19.0377 3.70343 18.7749C3.70343 18.5121 3.75523 18.2518 3.85588 18.009C3.95653 17.7662 4.10405 17.5456 4.29 17.3599L4.35 17.2999C4.58054 17.0642 4.73519 16.7649 4.794 16.4405C4.85282 16.1161 4.81312 15.7815 4.68 15.4799C4.55324 15.1841 4.34276 14.9319 4.07447 14.7542C3.80618 14.5765 3.49179 14.4812 3.17 14.4799H3C2.46957 14.4799 1.96086 14.2692 1.58579 13.8941C1.21071 13.519 1 13.0103 1 12.4799C1 11.9495 1.21071 11.4408 1.58579 11.0657C1.96086 10.6906 2.46957 10.4799 3 10.4799H3.09C3.42099 10.4722 3.742 10.365 4.0113 10.1724C4.28059 9.9798 4.48572 9.71064 4.6 9.3999C4.73312 9.09829 4.77282 8.76371 4.714 8.43931C4.65519 8.11492 4.50054 7.81558 4.27 7.5799L4.21 7.5199C4.02405 7.33416 3.87653 7.11358 3.77588 6.87078C3.67523 6.62799 3.62343 6.36773 3.62343 6.1049C3.62343 5.84207 3.67523 5.58182 3.77588 5.33902C3.87653 5.09623 4.02405 4.87565 4.21 4.6899C4.39575 4.50395 4.61632 4.35643 4.85912 4.25578C5.10192 4.15513 5.36217 4.10333 5.625 4.10333C5.88783 4.10333 6.14808 4.15513 6.39088 4.25578C6.63368 4.35643 6.85425 4.50395 7.04 4.6899L7.1 4.7499C7.33568 4.98044 7.63502 5.13509 7.95941 5.19391C8.28381 5.25273 8.61838 5.21302 8.92 5.0799H9C9.29577 4.95314 9.54802 4.74266 9.72569 4.47437C9.90337 4.20608 9.99872 3.89169 10 3.5699V3.3999C10 2.86947 10.2107 2.36076 10.5858 1.98569C10.9609 1.61062 11.4696 1.3999 12 1.3999C12.5304 1.3999 13.0391 1.61062 13.4142 1.98569C13.7893 2.36076 14 2.86947 14 3.3999V3.4899C14.0013 3.81169 14.0966 4.12608 14.2743 4.39437C14.452 4.66266 14.7042 4.87314 15 4.9999C15.3016 5.13302 15.6362 5.17273 15.9606 5.11391C16.285 5.05509 16.5843 4.90044 16.82 4.6699L16.88 4.6099C17.0657 4.42395 17.2863 4.27643 17.5291 4.17578C17.7719 4.07513 18.0322 4.02333 18.295 4.02333C18.5578 4.02333 18.8181 4.07513 19.0609 4.17578C19.3037 4.27643 19.5243 4.42395 19.71 4.6099C19.896 4.79565 20.0435 5.01623 20.1441 5.25902C20.2448 5.50182 20.2966 5.76207 20.2966 6.0249C20.2966 6.28773 20.2448 6.54799 20.1441 6.79078C20.0435 7.03358 19.896 7.25416 19.71 7.4399L19.65 7.4999C19.4195 7.73558 19.2648 8.03492 19.206 8.35931C19.1472 8.68371 19.1869 9.01829 19.32 9.3199V9.3999C19.4468 9.69567 19.6572 9.94792 19.9255 10.1256C20.1938 10.3033 20.5082 10.3986 20.83 10.3999H21C21.5304 10.3999 22.0391 10.6106 22.4142 10.9857C22.7893 11.3608 23 11.8695 23 12.3999C23 12.9303 22.7893 13.439 22.4142 13.8141C22.0391 14.1892 21.5304 14.3999 21 14.3999H20.91C20.5882 14.4012 20.2738 14.4965 20.0055 14.6742C19.7372 14.8519 19.5268 15.1041 19.4 15.3999Z" stroke="black" stroke-width="2" stroke-linecap="round" stroke-linejoin="round"/>
</g>
<defs>
<clipPath id="clip0_59_1114">
<rect width="24" height="24" fill="white" transform="translate(0 0.399902)"/>
</clipPath>
</defs>
</svg>
